<?xml version="1.0" standalone="no"?>
<!DOCTYPE svg PUBLIC "-//W3C//DTD SVG 20010904//EN"
 "http://www.w3.org/TR/2001/REC-SVG-20010904/DTD/svg10.dtd">
<svg version="1.0" xmlns="http://www.w3.org/2000/svg"
 width="1024.000000pt" height="1024.000000pt" viewBox="0 0 1024.000000 1024.000000"
 preserveAspectRatio="xMidYMid meet">

<g transform="translate(0.000000,1024.000000) scale(0.100000,-0.100000)"
fill="#000000" stroke="none">
<path d="M5055 8289 c-262 -20 -606 -97 -847 -189 -267 -103 -465 -204 -693
-356 -179 -118 -264 -189 -453 -377 -444 -440 -728 -967 -861 -1597 -79 -374
-80 -895 -1 -1304 183 -945 810 -1774 1671 -2206 421 -212 859 -324 1319 -337
786 -22 1495 219 2085 711 106 88 374 358 455 457 162 198 346 500 449 736
127 289 222 681 252 1038 14 167 6 530 -15 685 -93 680 -385 1295 -835 1762
-183 191 -444 399 -671 535 -546 329 -1224 490 -1855 442z m625 -709 c514 -87
962 -317 1341 -691 155 -153 224 -236 333 -399 214 -321 365 -730 406 -1105
13 -116 13 -403 0 -525 -42 -400 -195 -820 -423 -1165 -206 -311 -562 -636
-867 -794 -524 -270 -1029 -353 -1590 -260 -315 52 -656 186 -925 363 -405
266 -752 681 -942 1126 -241 564 -274 1148 -97 1725 213 696 793 1317 1489
1593 181 72 426 131 630 151 152 16 502 6 645 -19z"/>
<path d="M4635 7177 c-52 -21 -85 -48 -113 -96 l-27 -46 -3 -1162 -2 -1162
-110 116 c-61 64 -127 128 -147 142 l-36 26 -485 3 -485 3 43 -48 c24 -26 296
-303 604 -616 309 -312 750 -759 982 -994 l420 -426 95 94 c601 599 1929 1962
1929 1980 0 13 -905 12 -953 -2 -41 -11 -74 -41 -207 -186 l-85 -92 0 1157 0
1157 -31 55 c-25 43 -42 61 -84 83 l-52 27 -612 -1 c-442 0 -619 -4 -641 -12z"/>
</g>
</svg>
