<?xml version="1.0" standalone="no"?>
<!DOCTYPE svg PUBLIC "-//W3C//DTD SVG 20010904//EN"
 "http://www.w3.org/TR/2001/REC-SVG-20010904/DTD/svg10.dtd">
<svg version="1.0" xmlns="http://www.w3.org/2000/svg"
 width="1024.000000pt" height="1024.000000pt" viewBox="0 0 1024.000000 1024.000000"
 preserveAspectRatio="xMidYMid meet">

<g transform="translate(0.000000,1024.000000) scale(0.100000,-0.100000)"
fill="#000000" stroke="none">
<path d="M4595 7742 c-118 -41 -203 -133 -235 -252 -9 -34 -12 -316 -11 -1172
0 -621 -2 -1128 -7 -1128 -4 0 -124 117 -267 260 -297 297 -307 304 -440 305
-66 0 -90 -5 -135 -26 -69 -33 -125 -88 -158 -159 -36 -75 -38 -193 -4 -261
17 -34 231 -254 830 -854 444 -444 821 -818 838 -832 46 -35 89 -44 143 -31
43 10 98 62 874 837 656 655 833 836 853 877 75 153 6 342 -154 421 -50 24
-68 28 -142 27 -142 -2 -146 -5 -447 -312 l-263 -267 -2 1155 -3 1155 -29 62
c-34 73 -113 153 -183 186 -47 22 -58 22 -528 24 -437 3 -484 1 -530 -15z"/>
<path d="M2792 3404 c-58 -29 -107 -87 -123 -148 -7 -24 -9 -110 -7 -216 l3
-175 34 -69 c66 -131 195 -229 356 -272 67 -18 149 -19 2040 -19 l1970 0 89
23 c49 12 116 37 150 55 118 62 219 193 245 315 16 77 14 289 -3 346 -33 110
-109 177 -206 184 -70 5 -120 -10 -166 -51 -59 -51 -77 -98 -83 -217 -7 -118
-19 -147 -74 -177 -30 -17 -134 -18 -1895 -21 -1826 -2 -1865 -2 -1908 17 -63
28 -84 68 -84 162 0 106 -22 171 -75 224 -70 70 -170 85 -263 39z"/>
</g>
</svg>
