<?xml version="1.0" standalone="no"?>
<!DOCTYPE svg PUBLIC "-//W3C//DTD SVG 20010904//EN"
 "http://www.w3.org/TR/2001/REC-SVG-20010904/DTD/svg10.dtd">
<svg version="1.0" xmlns="http://www.w3.org/2000/svg"
 width="1024.000000pt" height="1024.000000pt" viewBox="0 0 1024.000000 1024.000000"
 preserveAspectRatio="xMidYMid meet">

<g transform="translate(0.000000,1024.000000) scale(0.100000,-0.100000)"
fill="#000000" stroke="none">
<path d="M6685 7733 c-145 -9 -278 -65 -395 -166 -79 -68 -460 -456 -460 -469
0 -4 321 -327 713 -717 l712 -710 228 227 c254 253 311 326 353 455 22 67 27
101 28 187 0 58 -5 130 -13 160 -22 90 -83 210 -148 290 -86 106 -598 609
-659 648 -107 68 -237 102 -359 95z"/>
<path d="M3160 6863 c-14 -2 -54 -13 -90 -24 -253 -79 -433 -304 -471 -586 -6
-49 -9 -336 -7 -768 l3 -690 27 -47 c38 -63 116 -103 180 -93 74 13 120 45
156 110 15 27 18 103 22 750 5 679 6 723 25 774 25 71 99 151 167 182 l53 24
770 5 770 5 36 22 c21 13 47 44 63 74 23 42 28 60 24 100 -6 62 -46 122 -98
149 -38 20 -55 20 -822 19 -431 -1 -794 -4 -808 -6z"/>
<path d="M4305 5516 c-688 -684 -1258 -1259 -1268 -1277 -24 -47 -477 -1871
-477 -1921 0 -32 7 -47 35 -75 32 -32 40 -35 78 -31 23 3 137 39 252 81 116
42 338 121 495 176 281 98 612 218 944 341 l169 63 146 151 c80 83 452 459
827 836 375 377 860 865 1078 1085 l395 400 -707 708 c-389 389 -709 707 -712
707 -3 0 -568 -560 -1255 -1244z m1429 557 l156 -152 -911 -916 c-502 -503
-916 -915 -920 -915 -5 0 -9 6 -9 13 0 8 -13 41 -30 74 -41 81 -117 155 -200
195 -38 18 -68 36 -67 41 3 12 1812 1817 1818 1814 4 -1 77 -70 163 -154z
m566 -558 c85 -85 150 -158 146 -162 -179 -178 -1768 -1784 -1785 -1804 -28
-34 -41 -37 -41 -8 0 41 -62 148 -115 198 -51 48 -140 101 -170 101 -8 0 -15
4 -15 10 0 13 1802 1819 1815 1819 6 1 80 -69 165 -154z m-2788 -1415 c153
-33 168 -47 204 -175 56 -201 175 -326 363 -380 112 -33 169 -62 186 -96 19
-36 37 -154 33 -215 l-3 -48 -125 -44 c-69 -24 -294 -105 -500 -179 -206 -75
-424 -153 -483 -174 -60 -22 -114 -42 -119 -45 -6 -4 -8 1 -5 12 4 11 58 226
121 479 98 394 204 807 222 868 6 21 0 21 106 -3z"/>
<path d="M6940 4438 c-28 -15 -58 -43 -77 -72 l-33 -48 0 -482 c0 -533 -4
-568 -62 -679 -45 -85 -131 -170 -211 -207 -81 -39 -166 -49 -393 -50 -206 0
-230 -6 -287 -69 -96 -106 -53 -261 86 -307 75 -25 488 -15 600 15 214 57 392
177 506 344 45 66 99 183 124 269 20 69 21 100 24 607 l4 534 -26 54 c-50 102
-160 141 -255 91z"/>
</g>
</svg>
