<?xml version="1.0" standalone="no"?>
<!DOCTYPE svg PUBLIC "-//W3C//DTD SVG 20010904//EN"
 "http://www.w3.org/TR/2001/REC-SVG-20010904/DTD/svg10.dtd">
<svg version="1.0" xmlns="http://www.w3.org/2000/svg"
 width="1024.000000pt" height="1024.000000pt" viewBox="0 0 1024.000000 1024.000000"
 preserveAspectRatio="xMidYMid meet">

<g transform="translate(0.000000,1024.000000) scale(0.100000,-0.100000)"
fill="#000000" stroke="none">
<path d="M4934 8875 c-112 -20 -263 -76 -357 -132 -44 -27 -119 -85 -166 -130
-178 -166 -285 -373 -299 -575 l-5 -78 -709 0 c-726 0 -808 -4 -892 -40 -58
-25 -139 -92 -176 -145 -63 -91 -70 -132 -70 -392 0 -210 2 -240 21 -295 24
-73 61 -129 121 -184 40 -37 141 -94 167 -94 5 0 12 -19 16 -42 6 -45 55 -684
80 -1043 8 -115 19 -262 25 -325 21 -243 61 -786 95 -1295 33 -489 50 -724 90
-1230 9 -104 24 -316 34 -470 16 -236 22 -289 41 -339 51 -134 147 -257 267
-343 106 -75 273 -135 492 -173 149 -26 529 -71 686 -80 94 -6 220 -15 281
-20 255 -23 906 -9 1269 28 94 9 198 17 232 17 35 -1 58 2 53 5 -5 3 36 12 93
19 122 15 359 56 439 77 85 22 206 75 273 121 132 89 248 244 289 382 9 30 21
127 26 215 6 89 19 274 30 411 11 138 31 412 45 610 13 198 38 531 55 740 16
209 39 504 50 655 43 575 81 1069 89 1165 5 55 22 281 37 503 l29 403 71 34
c85 41 167 124 210 211 27 56 28 66 36 263 4 123 3 234 -3 276 -25 183 -173
335 -354 365 -35 6 -355 10 -776 10 l-716 0 -6 80 c-8 95 -52 234 -104 328
-137 245 -385 430 -661 493 -116 26 -338 33 -448 14z m354 -341 c139 -28 279
-107 371 -211 82 -91 151 -250 151 -344 0 -18 -23 -19 -680 -19 l-680 0 0 28
c0 54 31 158 66 219 63 113 193 233 308 283 131 58 311 75 464 44z m2341 -920
c43 -30 51 -71 51 -248 0 -163 0 -165 -26 -196 -15 -17 -40 -38 -58 -48 -29
-16 -185 -17 -2461 -17 -2410 0 -2430 0 -2469 20 -74 37 -81 56 -84 233 -4
174 4 220 45 251 l26 21 2476 0 c2273 0 2478 -1 2500 -16z m-272 -848 c3 -3
-24 -376 -111 -1506 -25 -317 -60 -787 -111 -1475 -14 -187 -36 -475 -50 -640
-13 -165 -31 -401 -40 -525 -8 -124 -18 -261 -21 -305 -7 -98 -18 -137 -57
-194 -59 -87 -141 -149 -237 -179 -123 -40 -559 -105 -925 -138 -279 -25 -893
-30 -1185 -10 -410 29 -683 62 -949 116 -181 36 -247 67 -329 154 -70 76 -102
148 -102 234 0 31 -9 167 -20 302 -24 292 -56 725 -105 1400 -8 113 -26 358
-40 545 -87 1184 -108 1461 -135 1819 -16 219 -30 400 -30 402 0 1 8 4 17 6
21 4 4426 -2 4430 -6z"/>
<path d="M3831 6486 c-47 -17 -108 -71 -131 -116 -36 -70 -39 -110 -24 -323
24 -345 72 -1126 109 -1742 19 -324 39 -664 45 -755 5 -91 24 -410 40 -710 33
-588 35 -601 94 -668 80 -91 205 -95 294 -9 60 58 60 66 41 627 -18 508 -41
1226 -59 1790 -5 168 -16 568 -25 890 -21 831 -21 822 -43 872 -46 104 -130
158 -242 157 -36 0 -80 -6 -99 -13z"/>
<path d="M4627 6486 c-60 -22 -103 -62 -134 -123 -34 -69 -33 38 -4 -1218 12
-484 26 -1078 31 -1320 6 -242 15 -582 20 -755 5 -173 12 -430 15 -570 5 -183
11 -268 21 -302 25 -78 118 -148 198 -148 77 0 181 79 204 156 16 54 18 4048
2 4106 -18 65 -70 130 -129 160 -43 23 -66 28 -120 28 -36 -1 -83 -7 -104 -14z"/>
<path d="M5415 6476 c-56 -26 -99 -71 -126 -131 -16 -38 -17 -166 -20 -2085
-3 -1844 -2 -2048 12 -2080 32 -71 117 -129 189 -130 48 0 130 40 164 81 60
71 55 -1 81 1089 31 1283 46 1853 60 2340 21 715 21 739 -10 799 -29 58 -90
113 -144 129 -64 20 -150 15 -206 -12z"/>
<path d="M6237 6486 c-89 -32 -151 -111 -167 -212 -5 -33 -14 -246 -20 -474
-6 -228 -15 -552 -20 -720 -5 -168 -14 -467 -20 -665 -6 -198 -17 -544 -25
-770 -54 -1487 -52 -1382 -27 -1430 36 -72 102 -115 174 -115 55 0 139 39 165
76 51 72 54 87 69 332 7 130 28 460 44 732 53 862 89 1452 95 1555 8 144 52
841 75 1181 17 256 18 297 6 339 -25 82 -82 145 -154 171 -48 17 -147 17 -195
0z"/>
<path d="M3188 6475 c-60 -34 -69 -81 -52 -276 7 -90 27 -366 44 -614 16 -247
41 -601 55 -785 14 -184 36 -481 50 -660 13 -179 31 -426 40 -550 80 -1115 92
-1257 115 -1298 41 -73 114 -93 169 -47 53 45 54 57 26 461 -13 203 -38 574
-55 824 -16 250 -39 583 -50 740 -29 411 -108 1606 -123 1871 -15 245 -24 281
-79 322 -34 26 -105 32 -140 12z"/>
<path d="M6964 6476 c-46 -20 -82 -73 -89 -131 -3 -28 -14 -189 -25 -360 -39
-614 -50 -795 -70 -1075 -11 -157 -31 -447 -45 -645 -14 -198 -34 -481 -44
-630 -88 -1210 -94 -1302 -81 -1340 33 -101 162 -100 211 2 23 48 33 154 144
1643 14 184 43 574 65 865 22 292 49 656 60 810 11 154 27 366 36 470 21 262
21 305 -1 342 -34 58 -96 77 -161 49z"/>
</g>
</svg>
