<?xml version="1.0" standalone="no"?>
<!DOCTYPE svg PUBLIC "-//W3C//DTD SVG 20010904//EN"
 "http://www.w3.org/TR/2001/REC-SVG-20010904/DTD/svg10.dtd">
<svg version="1.0" xmlns="http://www.w3.org/2000/svg"
 width="1024.000000pt" height="1024.000000pt" viewBox="0 0 1024.000000 1024.000000"
 preserveAspectRatio="xMidYMid meet">

<g transform="translate(0.000000,1024.000000) scale(0.100000,-0.100000)"
fill="#000000" stroke="none">
<path d="M4765 8543 c-461 -41 -885 -191 -1270 -448 -223 -149 -378 -286 -529
-470 -310 -375 -492 -771 -573 -1245 -26 -152 -26 -618 0 -773 55 -324 165
-636 319 -897 386 -655 1043 -1092 1849 -1231 158 -27 553 -38 722 -19 348 38
683 134 950 274 l117 61 131 -132 131 -132 -36 -32 c-21 -17 -44 -45 -52 -60
-19 -38 -18 -108 4 -139 9 -14 321 -329 692 -701 653 -655 678 -678 755 -717
116 -58 189 -75 325 -76 210 0 357 60 501 204 100 100 155 199 190 340 28 111
23 281 -11 380 -45 129 -72 164 -304 395 -823 817 -1175 1159 -1203 1171 -18
8 -45 14 -60 14 -39 -1 -107 -33 -127 -61 l-16 -24 -100 100 c-55 55 -100 104
-100 109 0 5 22 41 48 80 328 483 487 1010 469 1556 -15 459 -157 897 -425
1310 -425 656 -1143 1086 -1937 1160 -103 9 -369 11 -460 3z m590 -512 c312
-60 560 -157 797 -313 504 -332 849 -881 934 -1485 23 -170 15 -452 -20 -621
-87 -428 -277 -779 -590 -1093 -304 -305 -682 -492 -1146 -565 -175 -28 -511
-25 -685 5 -263 45 -436 99 -642 200 -345 169 -614 400 -817 706 -151 227
-250 484 -302 790 -25 142 -25 539 -1 680 70 406 278 811 562 1099 317 322
738 531 1220 607 169 26 529 21 690 -10z m1626 -3887 c52 -52 96 -99 97 -105
2 -5 -63 -77 -144 -160 l-148 -150 -111 111 -110 110 35 28 c57 44 251 223
263 244 7 10 15 18 18 18 4 0 49 -43 100 -96z m1457 -1404 c42 -26 88 -99 101
-161 32 -150 -68 -293 -216 -306 -85 -8 -139 10 -195 66 -94 94 -77 151 93
316 99 95 113 105 147 105 20 0 52 -9 70 -20z"/>
<path d="M4783 7421 c-67 -31 -92 -105 -58 -171 29 -56 44 -60 220 -60 195 0
309 -17 469 -70 148 -50 175 -51 224 -6 33 31 37 40 37 83 0 92 -38 120 -248
182 -165 49 -252 61 -437 61 -140 0 -171 -3 -207 -19z"/>
<path d="M4031 7318 c-19 -5 -81 -41 -137 -79 -261 -178 -444 -388 -569 -652
-113 -240 -153 -433 -141 -682 8 -175 11 -189 53 -231 27 -27 41 -34 74 -34
51 0 95 23 118 61 16 26 18 48 13 197 -4 133 -1 185 12 252 75 370 321 722
636 913 42 25 83 59 93 75 56 97 -40 211 -152 180z"/>
</g>
</svg>
